<svg width="22" height="22" viewBox="0 0 22 22" fill="none" xmlns="http://www.w3.org/2000/svg">
<path d="M19.4093 5.14508C19.346 5.0693 19.2668 5.00834 19.1773 4.96651C19.0878 4.92469 18.9903 4.90302 18.8915 4.90304H5.28641L4.77365 2.08369C4.74541 1.92823 4.6635 1.78762 4.5422 1.68636C4.42091 1.5851 4.26793 1.52962 4.10992 1.5296H2.0243C1.84536 1.5296 1.67375 1.60068 1.54722 1.72721C1.42069 1.85374 1.34961 2.02535 1.34961 2.20429C1.34961 2.38323 1.42069 2.55484 1.54722 2.68137C1.67375 2.80789 1.84536 2.87898 2.0243 2.87898H3.54234L5.69797 14.7105C5.76147 15.0614 5.91654 15.3892 6.14748 15.6609C5.82873 15.9587 5.59866 16.3388 5.48279 16.7593C5.36692 17.1798 5.36978 17.6242 5.49103 18.0432C5.61229 18.4621 5.84722 18.8393 6.16977 19.1329C6.49231 19.4265 6.88987 19.6251 7.31837 19.7065C7.74686 19.788 8.18953 19.7492 8.59731 19.5944C9.00509 19.4396 9.36204 19.1749 9.62857 18.8297C9.8951 18.4844 10.0608 18.0721 10.1073 17.6384C10.1538 17.2047 10.0793 16.7666 9.892 16.3727H13.7225C13.5716 16.6887 13.4935 17.0346 13.494 17.3848C13.494 17.8518 13.6325 18.3084 13.892 18.6967C14.1514 19.085 14.5202 19.3877 14.9517 19.5664C15.3832 19.7451 15.858 19.7919 16.3161 19.7008C16.7741 19.6097 17.1949 19.3848 17.5252 19.0545C17.8554 18.7243 18.0803 18.3035 18.1714 17.8454C18.2625 17.3874 18.2158 16.9126 18.037 16.4811C17.8583 16.0496 17.5556 15.6808 17.1673 15.4213C16.779 15.1618 16.3224 15.0234 15.8554 15.0234H7.68914C7.53114 15.0233 7.37816 14.9679 7.25686 14.8666C7.13557 14.7653 7.05366 14.6247 7.02542 14.4693L6.75807 12.9993H16.541C17.0151 12.9992 17.474 12.8328 17.8379 12.529C18.2018 12.2253 18.4475 11.8034 18.5322 11.337L19.5577 5.69833C19.5751 5.60087 19.5708 5.50078 19.5451 5.40517C19.5195 5.30956 19.4731 5.22076 19.4093 5.14508ZM8.77117 17.3848C8.77117 17.5849 8.71182 17.7806 8.60061 17.947C8.48941 18.1134 8.33135 18.2432 8.14643 18.3198C7.9615 18.3964 7.75802 18.4164 7.5617 18.3773C7.36539 18.3383 7.18506 18.2419 7.04353 18.1004C6.90199 17.9588 6.8056 17.7785 6.76656 17.5822C6.72751 17.3859 6.74755 17.1824 6.82415 16.9975C6.90074 16.8125 7.03046 16.6545 7.19689 16.5433C7.36331 16.4321 7.55898 16.3727 7.75914 16.3727C8.02755 16.3727 8.28496 16.4794 8.47475 16.6691C8.66455 16.8589 8.77117 17.1164 8.77117 17.3848ZM16.8674 17.3848C16.8674 17.5849 16.8081 17.7806 16.6969 17.947C16.5857 18.1134 16.4276 18.2432 16.2427 18.3198C16.0578 18.3964 15.8543 18.4164 15.658 18.3773C15.4616 18.3383 15.2813 18.2419 15.1398 18.1004C14.9982 17.9588 14.9019 17.7785 14.8628 17.5822C14.8238 17.3859 14.8438 17.1824 14.9204 16.9975C14.997 16.8125 15.1267 16.6545 15.2931 16.5433C15.4596 16.4321 15.6552 16.3727 15.8554 16.3727C16.1238 16.3727 16.3812 16.4794 16.571 16.6691C16.7608 16.8589 16.8674 17.1164 16.8674 17.3848ZM17.2048 11.0958C17.1764 11.2517 17.0942 11.3927 16.9724 11.494C16.8505 11.5953 16.6969 11.6505 16.5385 11.6499H6.51266L5.53183 6.25241H18.0827L17.2048 11.0958Z" fill="black"/>
</svg>
