<svg width="24" height="24" viewBox="0 0 24 24" fill="none" xmlns="http://www.w3.org/2000/svg">
<mask id="mask0_313_34" style="mask-type:alpha" maskUnits="userSpaceOnUse" x="-1" y="2" width="21" height="21">
<rect x="-0.196289" y="2.88086" width="19.6964" height="19.6964" fill="#D9D9D9"/>
</mask>
<g mask="url(#mask0_313_34)">
<path d="M1.44507 20.9359V6.16358C1.44507 5.71221 1.60592 5.32567 1.92763 5.00396C2.24879 4.6828 2.63506 4.52222 3.08643 4.52222H16.2174C16.6687 4.52222 17.0553 4.6828 17.377 5.00396C17.6982 5.32567 17.8587 5.71221 17.8587 6.16358V16.0118C17.8587 16.4632 17.6982 16.8497 17.377 17.1714C17.0553 17.4926 16.6687 17.6531 16.2174 17.6531H4.7278L1.44507 20.9359ZM3.08643 16.9761L4.05074 16.0118H16.2174V6.16358H3.08643V16.9761Z" fill="black" fill-opacity="0.6"/>
</g>
</svg>
