<svg width="12" height="12" viewBox="0 0 12 12" fill="none" xmlns="http://www.w3.org/2000/svg">
<mask id="mask0_313_58" style="mask-type:alpha" maskUnits="userSpaceOnUse" x="0" y="0" width="12" height="12">
<rect width="12" height="12" fill="#D9D9D9"/>
</mask>
<g mask="url(#mask0_313_58)">
<path d="M6 11C5.30833 11 4.65833 10.8687 4.05 10.606C3.44167 10.3437 2.9125 9.9875 2.4625 9.5375C2.0125 9.0875 1.65633 8.55833 1.394 7.95C1.13133 7.34167 1 6.69167 1 6C1 5.30833 1.13133 4.65833 1.394 4.05C1.65633 3.44167 2.0125 2.9125 2.4625 2.4625C2.9125 2.0125 3.44167 1.65617 4.05 1.3935C4.65833 1.13117 5.30833 1 6 1C6.69167 1 7.34167 1.13117 7.95 1.3935C8.55833 1.65617 9.0875 2.0125 9.5375 2.4625C9.9875 2.9125 10.3437 3.44167 10.606 4.05C10.8687 4.65833 11 5.30833 11 6C11 6.69167 10.8687 7.34167 10.606 7.95C10.3437 8.55833 9.9875 9.0875 9.5375 9.5375C9.0875 9.9875 8.55833 10.3437 7.95 10.606C7.34167 10.8687 6.69167 11 6 11ZM5.5 9.975V9C5.225 9 4.98967 8.90217 4.794 8.7065C4.598 8.5105 4.5 8.275 4.5 8V7.5L2.1 5.1C2.075 5.25 2.052 5.4 2.031 5.55C2.01033 5.7 2 5.85 2 6C2 7.00833 2.33133 7.89167 2.994 8.65C3.65633 9.40833 4.49167 9.85 5.5 9.975ZM8.95 8.7C9.11667 8.51667 9.26667 8.31867 9.4 8.106C9.53333 7.89367 9.64383 7.67283 9.7315 7.4435C9.81883 7.2145 9.8855 6.97917 9.9315 6.7375C9.97717 6.49583 10 6.25 10 6C10 5.18333 9.773 4.4375 9.319 3.7625C8.86467 3.0875 8.25833 2.6 7.5 2.3V2.5C7.5 2.775 7.40217 3.01033 7.2065 3.206C7.0105 3.402 6.775 3.5 6.5 3.5H5.5V4.5C5.5 4.64167 5.45217 4.76033 5.3565 4.856C5.2605 4.952 5.14167 5 5 5H4V6H7C7.14167 6 7.2605 6.04783 7.3565 6.1435C7.45217 6.2395 7.5 6.35833 7.5 6.5V8H8C8.21667 8 8.4125 8.0645 8.5875 8.1935C8.7625 8.32283 8.88333 8.49167 8.95 8.7Z" fill="#1E1E1E" fill-opacity="0.38"/>
</g>
</svg>
