<svg width="136" height="29" viewBox="0 0 136 29" fill="none" xmlns="http://www.w3.org/2000/svg">
<g clip-path="url(#clip0_37_193)">
<g clip-path="url(#clip1_37_193)">
<path d="M46.3558 5.13341H47.5636V8.637H49.0738L50.4633 3.07964V0.844983H46.3558V5.13341ZM27.9928 9.90548C28.8989 9.90548 29.3215 10.6304 29.3215 16.3087H26.3619C26.4826 10.6304 26.9658 9.90548 27.9928 9.90548ZM33.4896 21.3223H31.5566V21.9868C31.5566 24.7655 30.7711 26.0943 29.1401 26.0943C27.2677 26.0943 26.3617 24.886 26.3617 18.5434V18.0604H33.7309C33.7309 10.6304 32.0999 7.73097 27.9926 7.73097C23.8851 7.73097 21.2271 11.9592 21.2271 18.4834C21.2271 24.9466 23.7641 28.45 28.1134 28.45C31.8584 28.45 33.4894 26.3358 33.4894 21.8661L33.4896 21.3223ZM84.7877 9.90548C85.6937 9.90548 86.1165 10.6304 86.1165 16.3087H83.3233C83.4441 10.6304 83.7607 9.90548 84.7877 9.90548ZM90.2844 21.3223H88.3514V21.9868C88.3514 24.7655 87.5661 26.0943 85.9352 26.0943C84.0625 26.0943 83.3231 24.886 83.3231 18.5434V18.0604H90.5259C90.5259 10.6304 88.895 7.73097 84.7875 7.73097C80.6799 7.73097 78.0222 11.9592 78.0222 18.4832C78.0222 24.9466 80.5594 28.45 84.9084 28.45C88.6535 28.45 90.2844 26.3358 90.2844 21.8661V21.3223ZM116.983 28.45C119.701 28.45 120.849 26.7587 120.849 24.3422V21.3223H119.037V24.3422C119.037 25.6111 118.856 26.0335 118.252 26.0335C117.708 26.0335 117.527 25.6711 117.527 24.5233V10.0262H120.849V8.1538H117.587V2.53607H115.715L112.936 8.39528H111.305V9.96585H112.755V23.3756C112.755 26.8794 113.359 28.45 116.983 28.45ZM102.969 13.107C102.969 9.36191 101.278 7.79156 97.6538 7.79156C94.0295 7.79156 91.5529 10.3889 91.5529 13.4697V14.6778H95.721V11.8385C95.721 10.2076 96.0835 9.60362 96.9895 9.60362C97.8958 9.60362 98.258 10.1472 98.258 11.8385V15.161C92.7613 17.0332 91.0699 18.4228 91.0699 23.074C91.0699 26.6983 92.5195 28.45 94.9964 28.45C97.1105 28.45 98.0771 27.0001 98.6207 26.0943V28.0875H103.997V26.4564H102.97V13.107H102.969ZM134.44 26.4564V12.1404C134.44 9.18057 133.111 7.79134 130.755 7.79134C127.916 7.79134 126.769 9.90548 126.769 9.90548V0.603271L120.789 1.26781V2.83815H122.178V26.4564H121.211V28.0875H127.856V26.4564H126.89V13.9526C126.89 11.7781 127.494 10.8721 128.581 10.8721C129.366 10.8721 129.668 11.3553 129.668 12.5634V26.4564H128.581V28.0875H135.769V26.4564H134.44ZM98.2578 16.8521V23.0134C98.2578 24.8256 97.8956 25.5508 96.8686 25.5508C96.0835 25.5508 95.7208 24.886 95.7208 22.7117C95.7208 19.0268 96.0229 18.1208 98.2578 16.8521ZM77.1017 26.4564V2.47592H78.4911V0.905131H70.2154V2.4757H71.9068V13.7109H66.5913V2.47592H68.343V0.905131H59.9466V2.4757H61.3964V26.4561H59.9466V28.0873H68.343V26.4561H66.5913V15.5838H71.9068V26.4564H70.2154V28.0875H78.4911V26.4564H77.1017ZM110.339 26.4564V0.603271L104.117 1.26781V2.83815H105.627V26.4564H104.661V28.0875H111.788V26.4564H110.339ZM59.6448 22.7115C59.6448 16.3087 52.7588 15.8857 52.7588 11.6572C52.7588 10.2076 53.4835 9.48265 54.6312 9.48265C56.3829 9.48265 57.2891 11.2343 57.4099 14.9188H58.9802V8.87848C58.9802 8.87848 57.2285 7.79134 54.5706 7.79134C51.3693 7.79134 48.7718 9.60339 48.7718 13.2881C48.7718 19.3287 55.4766 20.1745 55.4766 24.2818C55.4766 25.913 54.6913 26.6983 53.4226 26.6983C51.4896 26.6983 50.5232 25.007 50.4025 20.8388H48.8321V27.3628C48.8321 27.3628 50.7651 28.45 53.604 28.45C57.1078 28.45 59.6448 26.4564 59.6448 22.7115ZM20.3213 26.4564V2.47592H21.5898V0.905131H14.5225L11.0191 16.1877L7.27406 0.905131H0.0253906V2.4757H1.53559V26.4561H0.0253906V28.0873H5.58252V26.4561H3.83084V9.60339L8.24045 28.0873H10.7774L15.1264 9.48265V26.4561H13.4955V28.0873H21.5898V26.4561L20.3213 26.4564ZM47.0804 26.4564V12.1404C47.0804 9.18057 45.7518 7.79134 43.4563 7.79134C40.6173 7.79134 39.4695 9.90548 39.4695 9.90548V7.79134L33.429 8.45588V10.0868H34.8184V26.4564H33.3688V28.0875H40.5567V26.4564H39.5903V13.9526C39.5903 11.7781 40.1945 10.8721 41.2816 10.8721C42.0669 10.8721 42.3687 11.3553 42.3687 12.5634V26.4564H41.2816V28.0875H48.0468V26.4564H47.0804Z" fill="black"/>
</g>
</g>
<defs>
<clipPath id="clip0_37_193">
<rect width="136" height="27.95" fill="white" transform="translate(0 0.5)"/>
</clipPath>
<clipPath id="clip1_37_193">
<rect width="135.949" height="27.95" fill="white" transform="translate(0.0253906 0.5)"/>
</clipPath>
</defs>
</svg>
