<svg width="25" height="24" viewBox="0 0 25 24" fill="none" xmlns="http://www.w3.org/2000/svg">
<path d="M5.04396 20.2124C4.97809 20.2128 4.91263 20.2022 4.85021 20.1812C4.71968 20.1388 4.60673 20.0546 4.52879 19.9417C4.45085 19.8287 4.41225 19.6932 4.41896 19.5562C4.41896 19.4624 5.06271 10.3874 14.1627 9.67491V6.41241C14.1626 6.28816 14.1995 6.16669 14.2688 6.06352C14.338 5.96035 14.4365 5.88017 14.5515 5.83321C14.6666 5.78625 14.793 5.77466 14.9147 5.7999C15.0363 5.82514 15.1477 5.88607 15.2346 5.97491L21.4033 12.2749C21.5179 12.3917 21.582 12.5488 21.582 12.7124C21.582 12.876 21.5179 13.0331 21.4033 13.1499L15.2346 19.4499C15.1477 19.5388 15.0363 19.5997 14.9147 19.6249C14.793 19.6502 14.6666 19.6386 14.5515 19.5916C14.4365 19.5447 14.338 19.4645 14.2688 19.3613C14.1995 19.2581 14.1626 19.1367 14.1627 19.0124V15.8124C8.08771 16.0437 5.59708 19.8749 5.57209 19.9218C5.5157 20.0108 5.43771 20.0842 5.34538 20.135C5.25304 20.1858 5.14935 20.2124 5.04396 20.2124ZM15.4127 7.94366V10.2593C15.4128 10.4213 15.35 10.5771 15.2375 10.6937C15.1249 10.8103 14.9715 10.8786 14.8096 10.8843C8.92209 11.0999 6.81584 15.0218 6.05959 17.5437C7.62209 16.1937 10.4065 14.5437 14.7502 14.5437H14.7783C14.9441 14.5437 15.1031 14.6095 15.2203 14.7267C15.3375 14.8439 15.4033 15.0029 15.4033 15.1687V17.4843L20.0908 12.7155L15.4127 7.94366Z" fill="black" fill-opacity="0.6"/>
</svg>
