<svg width="25" height="24" viewBox="0 0 25 24" fill="none" xmlns="http://www.w3.org/2000/svg">
<path d="M20.4663 12.23C20.7442 12.435 21 12.6383 21 13.3533C21 14.07 20.6384 14.36 20.2516 14.5617C20.4097 14.8338 20.4602 15.1606 20.3921 15.4717C20.2705 16.045 19.7732 16.49 19.3311 16.6217C19.5221 16.945 19.5821 17.2633 19.3547 17.655C19.0626 18.1467 18.8084 18.3333 17.6842 18.3333H13.1053C11.5453 18.3333 10.7368 17.4233 10.7368 16.6667V12.775C10.7368 10.725 13.0532 8.98333 13.0532 7.55833L12.8858 5.78333C12.8779 5.675 12.8984 5.41 12.9774 5.33333C13.1037 5.20167 13.4526 5 13.98 5C14.3242 5 14.5532 5.06833 14.8232 5.205C15.7405 5.66667 15.9789 6.835 15.9789 7.775C15.9789 8.22667 15.3253 9.58 15.2368 10.0483C15.2368 10.0483 16.6058 9.72833 18.2037 9.71667C19.8789 9.70667 20.9653 10.0333 20.9653 11.12C20.9653 11.555 20.6195 11.9917 20.4663 12.23ZM6.94737 11.6667H8.21053C8.46178 11.6667 8.70275 11.772 8.88042 11.9596C9.05808 12.1471 9.15789 12.4015 9.15789 12.6667V19C9.15789 19.2652 9.05808 19.5196 8.88042 19.7071C8.70275 19.8946 8.46178 20 8.21053 20H6.94737C6.69611 20 6.45514 19.8946 6.27748 19.7071C6.09981 19.5196 6 19.2652 6 19V12.6667C6 12.4015 6.09981 12.1471 6.27748 11.9596C6.45514 11.772 6.69611 11.6667 6.94737 11.6667Z" fill="#129BF7"/>
</svg>
