<svg width="133" height="32" viewBox="0 0 133 32" fill="none" xmlns="http://www.w3.org/2000/svg">
<g clip-path="url(#clip0_37_148)">
<g clip-path="url(#clip1_37_148)">
<g clip-path="url(#clip2_37_148)">
<path d="M43.626 4.36155H44.7631V7.65956H46.1846L47.4926 2.42829V0.324758H43.626V4.36155ZM26.3406 8.85362C27.1934 8.85362 27.5912 9.53599 27.5912 14.8811H24.8053C24.919 9.53599 25.3738 8.85362 26.3406 8.85362ZM31.5148 19.6005H29.6952V20.2261C29.6952 22.8417 28.9558 24.0926 27.4205 24.0926C25.658 24.0926 24.8051 22.9551 24.8051 16.9847V16.53H31.7419C31.7419 9.536 30.2067 6.8067 26.3404 6.8067C22.4738 6.8067 19.9719 10.7869 19.9719 16.9283C19.9719 23.0122 22.36 26.31 26.454 26.31C29.9794 26.31 31.5146 24.3199 31.5146 20.1124L31.5148 19.6005ZM79.8029 8.85362C80.6558 8.85362 81.0538 9.53599 81.0538 14.8811H78.4245C78.5381 9.53599 78.8362 8.85362 79.8029 8.85362ZM84.9771 19.6005H83.1575V20.2261C83.1575 22.8417 82.4183 24.0926 80.8831 24.0926C79.1203 24.0926 78.4243 22.9551 78.4243 16.9847V16.53H85.2045C85.2045 9.536 83.6692 6.8067 79.8027 6.8067C75.9362 6.8067 73.4344 10.7869 73.4344 16.9281C73.4344 23.0122 75.8227 26.31 79.9166 26.31C83.4419 26.31 84.9771 24.3199 84.9771 20.1124V19.6005ZM110.109 26.31C112.668 26.31 113.748 24.7179 113.748 22.4433V19.6005H112.043V22.4433C112.043 23.6377 111.872 24.0353 111.304 24.0353C110.792 24.0353 110.621 23.6941 110.621 22.6137V8.96728H113.748V7.20472H110.678V1.91662H108.915L106.3 7.43204H104.764V8.91045H106.129V21.5334C106.129 24.8316 106.698 26.31 110.109 26.31ZM96.9177 11.8673C96.9177 8.34194 95.3258 6.86374 91.9141 6.86374C88.5025 6.86374 86.1712 9.30868 86.1712 12.2087V13.3459H90.0947V10.6732C90.0947 9.13798 90.4359 8.56947 91.2888 8.56947C92.1419 8.56947 92.4829 9.08115 92.4829 10.6732V13.8007C87.3086 15.5631 85.7166 16.8712 85.7166 21.2494C85.7166 24.6611 87.0811 26.31 89.4126 26.31C91.4027 26.31 92.3126 24.9452 92.8243 24.0926V25.9688H97.8848V24.4333H96.9181V11.8673H96.9177ZM126.542 24.4333V10.9574C126.542 8.17124 125.291 6.86353 123.073 6.86353C120.401 6.86353 119.321 8.85362 119.321 8.85362V0.097229L113.691 0.722776V2.20098H114.999V24.4333H114.089V25.9688H120.344V24.4333H119.435V12.6633C119.435 10.6164 120.003 9.76352 121.026 9.76352C121.766 9.76352 122.05 10.2184 122.05 11.3556V24.4333H121.026V25.9688H127.793V24.4333H126.542ZM92.4827 15.3926V21.1924C92.4827 22.8983 92.1417 23.5809 91.1749 23.5809C90.4359 23.5809 90.0945 22.9551 90.0945 20.9084C90.0945 17.4397 90.3789 16.5869 92.4827 15.3926ZM72.5679 24.4333V1.86H73.8758V0.381377H66.0857V1.85979H67.6778V12.4358H62.6743V1.86H64.3232V0.381377H56.4194V1.85979H57.7842V24.4331H56.4194V25.9686H64.3232V24.4331H62.6743V14.1988H67.6778V24.4333H66.0857V25.9688H73.8758V24.4333H72.5679ZM103.855 24.4333V0.097229L97.9981 0.722776V2.20098H99.4196V24.4333H98.51V25.9688H105.219V24.4333H103.855ZM56.1353 20.9082C56.1353 14.8811 49.6533 14.4829 49.6533 10.5025C49.6533 9.13798 50.3355 8.4556 51.4159 8.4556C53.0648 8.4556 53.9179 10.1045 54.0315 13.5728H55.5097V7.88688C55.5097 7.88688 53.8608 6.86353 51.3589 6.86353C48.3454 6.86353 45.9003 8.56926 45.9003 12.0378C45.9003 17.7239 52.2117 18.5201 52.2117 22.3864C52.2117 23.9219 51.4725 24.6611 50.2783 24.6611C48.4587 24.6611 47.549 23.069 47.4353 19.1455H45.9571V25.2866C45.9571 25.2866 47.7767 26.31 50.449 26.31C53.7472 26.31 56.1353 24.4333 56.1353 20.9082ZM19.1192 24.4333V1.86H20.3133V0.381377H13.6606L10.3628 14.7673L6.8375 0.381377H0.0141602V1.85979H1.43574V24.4331H0.0141602V25.9686H5.24522V24.4331H3.59632V8.56926L7.7472 25.9686H10.1353L14.2291 8.4556V24.4331H12.6939V25.9686H20.3133V24.4331L19.1192 24.4333ZM44.3082 24.4333V10.9574C44.3082 8.17124 43.0575 6.86353 40.8967 6.86353C38.2243 6.86353 37.1439 8.85362 37.1439 8.85362V6.86353L31.4578 7.48908V9.02432H32.7657V24.4333H31.4011V25.9688H38.1672V24.4333H37.2575V12.6633C37.2575 10.6164 37.8263 9.76352 38.8496 9.76352C39.5888 9.76352 39.873 10.2184 39.873 11.3556V24.4333H38.8496V25.9688H45.2179V24.4333H44.3082Z" fill="#D2232E"/>
</g>
</g>
</g>
<defs>
<clipPath id="clip0_37_148">
<rect width="128" height="26.31" fill="white"/>
</clipPath>
<clipPath id="clip1_37_148">
<rect width="128" height="26.31" fill="white"/>
</clipPath>
<clipPath id="clip2_37_148">
<rect width="127.972" height="26.31" fill="white" transform="translate(0.0141602)"/>
</clipPath>
</defs>
</svg>
