<svg width="10" height="10" viewBox="0 0 10 10" fill="none" xmlns="http://www.w3.org/2000/svg">
<path d="M5 10C4.30833 10 3.65833 9.86867 3.05 9.606C2.44167 9.34367 1.9125 8.9875 1.4625 8.5375C1.0125 8.0875 0.656333 7.55833 0.394 6.95C0.131333 6.34167 0 5.69167 0 5C0 4.30833 0.131333 3.65833 0.394 3.05C0.656333 2.44167 1.0125 1.9125 1.4625 1.4625C1.9125 1.0125 2.44167 0.656167 3.05 0.3935C3.65833 0.131167 4.30833 0 5 0C5.69167 0 6.34167 0.131167 6.95 0.3935C7.55833 0.656167 8.0875 1.0125 8.5375 1.4625C8.9875 1.9125 9.34367 2.44167 9.606 3.05C9.86867 3.65833 10 4.30833 10 5C10 5.69167 9.86867 6.34167 9.606 6.95C9.34367 7.55833 8.9875 8.0875 8.5375 8.5375C8.0875 8.9875 7.55833 9.34367 6.95 9.606C6.34167 9.86867 5.69167 10 5 10ZM4.5 8.975V8C4.225 8 3.98967 7.90217 3.794 7.7065C3.598 7.5105 3.5 7.275 3.5 7V6.5L1.1 4.1C1.075 4.25 1.052 4.4 1.031 4.55C1.01033 4.7 1 4.85 1 5C1 6.00833 1.33133 6.89167 1.994 7.65C2.65633 8.40833 3.49167 8.85 4.5 8.975ZM7.95 7.7C8.11667 7.51667 8.26667 7.31867 8.4 7.106C8.53333 6.89367 8.64383 6.67283 8.7315 6.4435C8.81883 6.2145 8.8855 5.97917 8.9315 5.7375C8.97717 5.49583 9 5.25 9 5C9 4.18333 8.773 3.4375 8.319 2.7625C7.86467 2.0875 7.25833 1.6 6.5 1.3V1.5C6.5 1.775 6.40217 2.01033 6.2065 2.206C6.0105 2.402 5.775 2.5 5.5 2.5H4.5V3.5C4.5 3.64167 4.45217 3.76033 4.3565 3.856C4.2605 3.952 4.14167 4 4 4H3V5H6C6.14167 5 6.2605 5.04783 6.3565 5.1435C6.45217 5.2395 6.5 5.35833 6.5 5.5V7H7C7.21667 7 7.4125 7.0645 7.5875 7.1935C7.7625 7.32283 7.88333 7.49167 7.95 7.7Z" fill="#1E1E1E" fill-opacity="0.38"/>
</svg>
