<svg width="16" height="16" viewBox="0 0 16 16" fill="none" xmlns="http://www.w3.org/2000/svg">
<g clip-path="url(#clip0_37_155)">
<g clip-path="url(#clip1_37_155)">
<g clip-path="url(#clip2_37_155)">
<path d="M15.76 14.64L12.16 11.04C13.04 9.92 13.6 8.4 13.6 6.8C13.6 3.04 10.56 0 6.8 0C3.04 0 0 3.04 0 6.8C0 10.56 3.04 13.6 6.8 13.6C8.4 13.6 9.84 13.04 11.04 12.16L14.64 15.76C14.8 15.92 15.04 16 15.2 16C15.36 16 15.6 15.92 15.76 15.76C16.08 15.44 16.08 14.96 15.76 14.64ZM1.6 6.8C1.6 3.92 3.92 1.6 6.8 1.6C9.68 1.6 12 3.92 12 6.8C12 8.24 11.44 9.52 10.48 10.48C9.99865 10.9655 9.42521 11.3501 8.79329 11.6111C8.16136 11.8721 7.48369 12.0043 6.8 12C3.92 12 1.6 9.68 1.6 6.8Z" fill="black"/>
</g>
</g>
</g>
<defs>
<clipPath id="clip0_37_155">
<rect width="16" height="16" fill="white"/>
</clipPath>
<clipPath id="clip1_37_155">
<rect width="16" height="16" fill="white"/>
</clipPath>
<clipPath id="clip2_37_155">
<rect width="16" height="16" fill="white"/>
</clipPath>
</defs>
</svg>
