<svg width="582" height="72" viewBox="0 0 582 72" fill="none" xmlns="http://www.w3.org/2000/svg">
<path fill-rule="evenodd" clip-rule="evenodd" d="M522.458 69.8443C524.495 63.2614 546.708 60.7886 531.08 58.9371C525.368 58.26 532.282 60.1543 528.073 58.5086C526.198 57.78 533.166 57.78 531.312 57.6129C530.714 57.5657 532.433 57.4671 532.929 57.4671L514.784 56.9229C518.513 56.9229 526.678 57.0686 529.464 57.0514L539.595 56.7729C540.823 54.3514 543.372 56.0657 531.161 55.2086C526.834 54.9695 522.528 54.5273 518.266 53.8843C518.266 53.8843 529.652 51.7414 522.706 51.2186C521.79 51.15 521.908 51.0129 521.763 50.9014C534.044 51.4414 529.103 51.4629 534.842 51.2271C532.482 50.0014 531.501 50.7043 542.478 47.9614L546.002 47.1043C551.989 45.9857 543.087 47.6314 550.033 46.4871C565.914 43.8771 557.373 43.8643 554.107 42.9C550.259 41.76 550.103 42.1886 553.406 41.5757C553.665 41.5286 554.323 41.3957 554.614 41.3443L561.668 40.6586C557.96 40.2 556.478 40.1486 554.662 39.63C550.761 38.5114 554.662 38.2114 554.792 38.1857L558.079 37.6543C558.343 37.6071 558.935 37.4871 559.2 37.4357L563.349 35.1857C563.457 35.1429 563.888 35.0143 564.05 34.9714C564.357 34.8943 565.747 34.6629 566.173 34.5986C568.997 34.17 565.192 34.3286 571.502 34.0629L558.946 32.9229C558.182 32.8912 557.421 32.8254 556.667 32.7257C569.11 33.2486 563.732 33.4029 573.583 32.8114C576.649 30.4414 574.154 31.1914 573.448 29.8114C572.251 27.5014 572.569 29.6829 577.102 27.5786L562.255 26.1129C552.34 25.5643 562.751 26.22 546.73 26.1514C549.904 25.3843 548.228 25.9071 548.082 25.2129L547.613 24.7843C547.223 24.6271 546.813 24.5035 546.39 24.4157C545.754 24.2614 541.826 24.0943 537.768 22.8043C538.113 22.77 541.648 22.2943 543.335 22.1229C544.089 22.0457 546.369 21.8186 547.215 21.7543C547.818 21.7114 548.659 21.6514 549.295 21.6129L556.3 21.3643L558.768 21.3043L566.184 21.1329C572.72 21.0429 567.86 20.8586 576.773 21.1329C573.297 18.99 569.562 20.94 570.796 19.4571C571.335 18.7886 570.797 19.2557 574.946 18.9129L579.483 18.6171C578.944 18.57 581.235 18.5271 582.027 18.4629C573.836 17.4471 574.822 17.9186 571.616 16.5429C566.766 14.4686 568.479 16.0714 552.587 15.8529C557.572 14.82 558.887 14.8457 553.768 13.8729C548.125 12.7971 552.62 13.2729 543.917 14.3914C545.188 11.6829 546.072 11.6786 540.403 10.7014C555.379 10.6757 549.025 9.48429 577.775 10.2729C577.274 10.1614 576.347 10.0414 575.943 9.97286L571.308 9.20572C561.808 7.33715 574.542 10.4314 567.951 7.95857L562.169 6.49714C535.251 6.11572 561.808 6.92572 544.332 6.69429C542.176 6.66 538.819 6.33 534.152 6.26572C537.746 5.79858 542.079 5.62286 536.189 5.80714C559.329 6.39 558.138 6.55715 568.565 5.61429C562.843 4.64572 572.537 6.18858 564.901 4.87286L554.355 3.53143C565.095 2.62715 564.055 2.95714 578.767 3.24857C577.15 3.13714 573.755 2.90143 571.804 2.63572C566.539 1.92 570.355 2.61001 567.391 1.72715L553.169 0.737143L524.457 0C522.62 0.462857 522.329 1.02857 523.213 1.28571L81.7171 0.270002C81.4477 0.017145 80.5369 0.552861 75.3205 0.0171465C70.1633 1.58143 71.6291 0.874289 72.9709 1.30286L66.8222 2.25429L59.558 2.15572C57.521 8.73858 35.308 11.2157 50.9358 13.0671C56.648 13.7443 49.7341 11.8457 53.9374 13.4957C55.8181 14.2286 48.8503 14.2543 50.7041 14.4043C51.3022 14.4557 49.5832 14.55 49.0874 14.5543L62.5111 14.9229L62.4788 15.0171C58.7066 14.9743 54.4278 14.9229 52.5578 14.9357L42.4213 15.21C41.198 17.6571 38.6491 15.9129 50.8603 16.7786C56.745 17.2071 58.5126 17.3829 61.5357 17.7943L61.2501 18.6514C58.3563 19.3243 54.5787 20.43 59.3155 20.7943C60.2316 20.8629 60.1077 21 60.2586 21.1114C47.9773 20.5714 52.9135 20.55 47.1797 20.79C49.54 22.0157 50.5208 21.3086 39.5383 24.0514L36.0193 24.9086C30.0323 26.0271 38.9293 24.3814 31.9884 25.5257C16.1074 28.14 24.6488 28.1486 27.909 29.1129C31.7621 30.2529 31.9184 29.8243 28.615 30.4371C28.3563 30.4843 27.6989 30.6214 27.4079 30.6686L20.3538 31.3543C24.0614 31.8129 25.5433 31.8643 27.3594 32.3829C31.261 33.5014 27.3594 33.8057 27.2301 33.8271L23.9428 34.3629L22.8219 34.5771L18.6725 36.8314C18.5647 36.8743 18.1336 36.9986 17.9719 37.0414C17.6648 37.1186 16.2745 37.35 15.8433 37.4186C13.025 37.8471 16.8295 37.6886 10.5191 37.95L23.0698 39.1071C23.836 39.1342 24.5991 39.2 25.3547 39.3043C12.9118 38.7814 18.2899 38.6229 8.43898 39.2143C5.36732 41.5843 7.86776 40.8386 8.57371 42.2143C9.77004 44.5243 9.45211 42.3386 4.91466 44.4429L19.7664 45.9086C29.682 46.4571 19.2707 45.8057 35.2918 45.8743C32.1178 46.6371 33.7937 46.1186 33.9392 46.8086L34.408 47.2371C34.7971 47.3962 35.2075 47.5198 35.6313 47.6057C36.2618 47.76 40.1903 47.9271 44.2536 49.2214C43.9141 49.2514 40.3789 49.7271 38.6922 49.8986C37.9378 49.9757 35.6583 50.2071 34.8122 50.2671C34.2033 50.3143 33.368 50.37 32.7321 50.4086L25.7265 50.6571C24.9613 50.6829 24.0344 50.7 23.2584 50.7171L15.8433 50.8886C9.30662 50.9786 14.1674 51.1629 5.25417 50.8886C8.73 53.0314 12.4645 51.0771 11.2305 52.56C10.6916 53.2286 11.2304 52.7614 7.07561 53.1043L2.54354 53.4C3.08243 53.4514 0.786778 53.49 0 53.5543C8.18572 54.5743 7.20494 54.0986 10.4059 55.4743C15.2559 57.5529 13.5477 55.9457 29.4395 56.1643C24.4548 57.1971 23.1399 57.1757 28.2593 58.1486C33.9015 59.22 29.4072 58.7443 38.1102 57.6257C36.833 60.3386 35.9547 60.3386 41.6238 61.32C26.648 61.3414 33.0016 62.5329 4.25184 61.7486C4.75301 61.8557 5.67988 61.98 6.08404 62.0443L10.7185 62.8157C20.2191 64.68 7.48516 61.59 14.0758 64.0586L19.858 65.52C46.7755 65.9014 20.2191 65.0914 37.6899 65.3271C39.4305 65.3271 41.9148 65.5671 45.2343 65.6786L45.1104 66.0429C42.8794 66.2571 41.6561 66.3257 45.0511 66.2229V66.1757C22.7142 65.61 23.7596 65.4557 13.4507 66.39C19.1737 67.3586 9.47906 65.8157 17.1151 67.1357L27.6558 68.4729C16.9157 69.3771 17.9558 69.0471 3.24412 68.76C4.86079 68.8714 8.26117 69.1071 10.2066 69.3686C15.4769 70.0843 11.6562 69.3943 14.6255 70.2771L28.8198 71.3186L57.5264 72.0557C57.9116 71.9659 58.2837 71.8437 58.6365 71.6914L500.272 71.8071C500.552 72.0514 501.485 71.5243 506.669 72.0557C513.728 69.9129 508.377 72.0043 507.914 69.7029L522.464 69.9L522.458 69.8443ZM507.908 55.47L509.04 55.5171L507.87 55.5857L507.908 55.47ZM503.365 69.1843L504.346 69.2871C504.226 69.5481 504.039 69.7867 503.798 69.988C503.557 70.1892 503.267 70.3489 502.945 70.4571L503.365 69.1714V69.1843Z" fill="#009FE3"/>
</svg>
